<?xml version="1.0" standalone="no"?>
<!DOCTYPE svg PUBLIC "-//W3C//DTD SVG 20010904//EN"
 "http://www.w3.org/TR/2001/REC-SVG-20010904/DTD/svg10.dtd">
<svg version="1.0" xmlns="http://www.w3.org/2000/svg"
 width="500.000000pt" height="500.000000pt" viewBox="0 0 500.000000 500.000000"
 preserveAspectRatio="xMidYMid meet">

<g transform="translate(0.000000,500.000000) scale(0.100000,-0.100000)"
fill="#000000" stroke="none">
<path d="M2900 4621 c-79 -24 -154 -94 -237 -219 -54 -83 -183 -335 -183 -359
0 -19 -10 -16 -30 9 l-17 22 -33 -37 c-17 -20 -36 -37 -41 -37 -5 0 -9 16 -9
35 0 28 -4 35 -19 35 -19 0 -31 -34 -31 -87 0 -24 1 -25 53 -17 28 4 61 8 72
8 21 1 21 0 8 -86 -4 -34 -3 -38 16 -38 17 0 24 13 41 73 30 103 36 118 101
253 143 297 300 449 388 377 19 -16 69 -123 92 -198 35 -114 42 -177 44 -396
1 -124 5 -231 9 -237 8 -14 -9 -85 -32 -129 -16 -32 -32 -43 -32 -23 0 6 -4
10 -8 10 -5 0 -9 -7 -9 -15 0 -8 4 -15 8 -15 4 0 6 -7 5 -16 -3 -20 -52 -65
-62 -56 -5 4 -2 -1 5 -10 12 -16 9 -21 -9 -20 -3 0 -6 -14 -7 -31 -1 -17 -6
-34 -11 -39 -7 -7 -111 87 -130 119 -4 6 -31 15 -61 19 -51 7 -53 6 -43 -13 6
-11 30 -36 54 -55 24 -20 70 -61 103 -93 l60 -56 -37 4 c-21 3 -38 1 -38 -3 0
-5 18 -31 40 -59 45 -57 44 -63 -4 -26 -18 14 -38 25 -44 25 -24 0 -10 -31 47
-103 92 -116 159 -162 175 -121 10 26 8 29 -55 73 -56 40 -59 44 -45 60 18 19
21 68 6 91 -6 10 -3 20 11 33 15 14 17 22 9 37 -8 15 -5 31 16 72 15 29 37 67
50 83 13 17 38 62 56 100 29 62 32 79 31 150 0 44 0 103 0 130 7 265 -2 371
-45 520 -41 142 -111 255 -158 255 -10 0 -24 2 -32 4 -7 2 -24 1 -38 -3z"/>
<path d="M1416 4599 c-51 -40 -101 -162 -137 -336 -21 -103 -25 -189 -18 -428
1 -22 0 -74 -1 -115 -2 -56 3 -89 19 -130 19 -50 103 -195 132 -229 9 -10 9
-18 1 -32 -15 -24 -15 -52 0 -67 9 -9 9 -18 -1 -38 -11 -24 -9 -31 10 -58 l22
-30 -52 -48 c-51 -46 -62 -76 -33 -86 29 -9 218 215 198 235 -6 6 -51 -21 -74
-44 -15 -14 -32 -17 -32 -5 0 4 12 25 25 47 31 50 31 55 0 55 -14 0 -25 4 -25
9 0 5 46 50 103 99 56 49 108 97 116 106 12 14 11 16 -8 16 -34 0 -92 -35
-145 -89 -45 -46 -51 -48 -60 -31 -6 10 -34 49 -63 86 -63 83 -100 184 -88
242 10 44 10 107 0 221 -19 207 68 567 146 610 42 23 91 7 145 -47 53 -53 141
-182 174 -257 13 -27 29 -62 37 -78 8 -15 11 -32 7 -39 -4 -6 -3 -8 3 -5 12 8
13 6 75 -163 40 -106 45 -115 71 -118 26 -3 27 -1 22 25 -4 15 -8 38 -11 50
-2 11 -6 28 -9 36 -5 12 7 14 74 11 74 -4 81 -2 81 14 0 23 -42 88 -55 85 -6
-1 -12 -19 -15 -39 l-5 -36 -34 37 -34 38 -17 -23 c-19 -25 -40 -20 -40 10 0
46 -121 283 -198 389 -45 63 -116 132 -154 152 -50 26 -118 25 -152 -2z"/>
<path d="M2970 4479 c0 -8 -9 -15 -20 -16 -11 -1 -18 2 -15 8 8 12 -2 11 -28
-3 -31 -16 -87 -82 -119 -138 -45 -81 -105 -277 -129 -420 -13 -82 -27 -138
-35 -143 -25 -15 -14 -37 31 -65 25 -15 45 -30 45 -34 0 -4 -21 -5 -46 -1 -61
8 -56 -3 31 -67 103 -76 123 -85 143 -65 10 8 38 29 64 46 51 33 87 82 98 133
5 25 11 31 31 28 17 -1 20 1 10 7 -7 5 -9 11 -5 13 5 3 3 3 -3 2 -7 -2 -19 9
-28 25 -14 29 -50 47 -59 30 -2 -5 -3 -4 -2 3 2 7 10 12 19 12 9 -1 18 4 20
11 4 8 -3 10 -19 7 -16 -3 -24 0 -24 9 0 11 -2 11 -10 -1 -5 -8 -10 -10 -10
-4 0 5 7 19 15 30 15 19 15 19 8 -1 -6 -18 -5 -19 12 -5 10 8 21 15 24 15 3 0
5 6 3 15 -2 12 -1 13 7 1 5 -8 7 -21 4 -30 -3 -9 4 -5 16 9 14 17 21 20 21 10
0 -10 5 -7 16 8 8 12 13 28 11 35 -3 6 -6 3 -6 -7 -1 -18 -3 -17 -21 4 -23 26
-26 44 -7 37 6 -2 11 -10 9 -17 -3 -11 0 -11 12 0 9 7 16 21 16 31 0 22 16 34
24 17 3 -7 5 17 4 55 -1 41 -5 67 -12 67 -6 0 -4 5 4 10 10 6 11 10 3 10 -7 0
-13 12 -14 28 0 23 -2 24 -8 7 -4 -11 -6 -32 -5 -47 2 -15 -1 -30 -6 -33 -6
-4 -7 -11 -4 -17 4 -7 2 -8 -4 -4 -7 4 -12 2 -12 -3 0 -6 5 -11 11 -11 5 0 7
-5 4 -11 -4 -6 -9 -8 -12 -5 -3 3 -13 1 -23 -4 -12 -6 -17 -5 -17 5 0 8 5 11
10 8 6 -3 7 -1 3 5 -3 6 5 19 19 30 29 23 31 29 10 29 -8 0 -12 -4 -10 -8 3
-3 -2 -12 -10 -19 -13 -11 -15 -8 -13 13 1 14 6 23 10 21 4 -3 8 3 9 13 0 16
1 16 8 -1 9 -23 16 -12 16 23 0 13 -6 26 -14 29 -8 3 -11 0 -7 -7 5 -7 1 -9
-9 -5 -19 8 -12 17 13 19 18 1 22 6 22 28 0 8 -3 7 -10 -3 -7 -12 -12 -12 -22
-2 -9 9 -9 12 1 12 10 0 11 3 2 14 -9 11 -9 15 1 19 10 3 8 9 -6 23 -17 17
-18 17 -13 2 4 -11 2 -17 -6 -15 -7 1 -11 -6 -11 -15 1 -14 -2 -15 -16 -8 -22
12 -34 40 -21 53 5 5 7 16 4 24 -4 11 -8 11 -13 3 -5 -9 -9 -8 -13 2 -3 9 2
14 14 15 10 1 19 -1 19 -5 0 -4 3 -18 7 -31 4 -17 3 -22 -5 -17 -14 8 -15 -3
-3 -22 6 -10 10 -10 20 2 7 8 10 19 8 23 -3 5 10 9 28 9 27 0 32 -3 23 -13 -7
-9 -7 -13 0 -13 13 0 20 20 14 43 -4 15 -7 16 -14 5 -7 -9 -8 -2 -4 19 6 37
-1 66 -15 57 -5 -3 -9 5 -9 18 0 13 -7 32 -15 42 -11 15 -15 16 -15 5z m-39
-52 c-14 -14 -41 -18 -41 -6 0 20 25 37 38 26 9 -7 10 -13 3 -20z m15 -39 c5
4 5 3 1 -2 -13 -16 -37 -15 -37 1 0 12 3 13 13 4 8 -6 18 -7 23 -3z m-68 -92
c-1 -14 -5 -23 -9 -20 -7 4 0 44 7 44 2 0 3 -11 2 -24z m96 -105 c3 -5 -1 -11
-9 -15 -8 -3 -17 0 -21 6 -4 7 -3 8 4 4 7 -4 12 -2 12 3 0 13 7 14 14 2z m-46
-27 c6 3 13 3 16 -2 3 -5 0 -9 -7 -9 -7 0 -17 -2 -23 -4 -12 -4 -14 0 -14 24
0 9 3 8 9 -2 5 -7 13 -11 19 -7z m63 -7 c-10 -9 -11 -8 -5 6 3 10 9 15 12 12
3 -3 0 -11 -7 -18z m-14 -33 c-3 -4 -2 -16 4 -27 7 -11 7 -17 1 -13 -15 9 -21
-31 -8 -50 11 -15 14 -15 28 0 15 14 17 14 24 -2 4 -9 9 -27 10 -40 3 -20 1
-21 -13 -6 -15 14 -17 14 -26 -1 -7 -13 -3 -25 13 -47 13 -17 17 -27 10 -23
-7 4 -16 2 -21 -6 -7 -11 -9 -11 -9 3 0 26 -21 33 -38 12 -12 -15 -13 -15 -9
-2 3 9 -1 22 -10 30 -15 11 -16 11 -10 -6 8 -20 -10 -49 -24 -40 -5 3 -9 0 -9
-5 0 -6 5 -11 11 -11 5 0 7 -5 3 -11 -4 -8 -9 -7 -15 2 -7 11 -9 10 -9 -3 0
-10 4 -18 9 -18 5 0 12 -7 15 -15 4 -13 1 -12 -18 2 -18 14 -22 22 -14 36 5 9
7 21 4 26 -3 5 4 8 16 7 18 -1 23 5 24 31 1 18 -2 30 -7 27 -5 -3 -9 -13 -10
-22 0 -10 -3 -12 -6 -5 -2 7 3 23 11 35 11 15 16 18 16 8 0 -10 7 -6 20 10 11
14 18 18 15 10 -4 -11 1 -16 15 -16 11 0 20 3 20 7 0 12 -37 39 -45 32 -4 -5
-3 2 4 14 14 27 14 36 0 27 -6 -3 -3 8 5 25 9 17 19 31 23 31 3 0 3 -3 0 -6z
m93 -65 c0 -11 -4 -18 -9 -15 -5 4 -11 0 -14 -6 -2 -7 -7 -10 -11 -7 -8 8 17
58 26 53 5 -3 8 -14 8 -25z m-161 -25 c5 4 13 1 17 -5 4 -7 3 -9 -4 -5 -5 3
-12 1 -14 -5 -2 -6 -12 0 -23 13 -14 16 -15 19 -3 9 9 -7 22 -10 27 -7z m-53
-145 c-2 -16 -7 -33 -11 -37 -4 -4 -5 3 -2 16 3 13 1 22 -6 22 -8 0 -7 4 2 9
8 5 10 14 6 21 -5 9 -4 11 3 6 6 -4 10 -20 8 -37z m-36 1 c0 -5 -5 -10 -11
-10 -5 0 -7 5 -4 10 3 6 8 10 11 10 2 0 4 -4 4 -10z m109 -129 c0 -14 -1 -14
-6 -1 -3 8 -10 24 -15 35 -9 20 -9 20 6 1 9 -11 16 -27 15 -35z m36 -2 c-4 -5
-1 -9 4 -9 6 0 11 8 11 18 0 14 2 15 9 2 13 -20 4 -30 -24 -28 -24 2 -33 17
-19 31 10 9 25 -3 19 -14z m-105 -26 c0 -21 -3 -24 -9 -14 -5 8 -7 20 -4 28 8
21 13 15 13 -14z m-40 -33 c0 -5 -5 -10 -11 -10 -5 0 -7 5 -4 10 3 6 8 10 11
10 2 0 4 -4 4 -10z m75 -20 c-3 -5 -12 -10 -18 -10 -7 0 -6 4 3 10 19 12 23
12 15 0z"/>
<path d="M3000 4018 c-12 -8 -12 -9 2 -5 9 3 19 1 22 -6 3 -9 5 -9 5 0 1 18
-13 23 -29 11z"/>
<path d="M2938 3984 c-4 -5 0 -18 8 -29 15 -20 17 -12 5 19 -4 11 -10 15 -13
10z"/>
<path d="M2966 3981 c-5 -7 -3 -18 3 -24 14 -14 20 -6 11 17 -5 15 -9 16 -14
7z"/>
<path d="M1509 4421 c-7 -16 -16 -28 -19 -26 -3 2 -7 -5 -7 -16 -1 -11 2 -17
8 -14 5 4 9 1 9 -5 0 -6 5 -8 12 -4 7 4 8 3 4 -4 -4 -6 -13 -9 -20 -6 -8 3
-17 1 -20 -4 -3 -6 0 -12 7 -15 17 -6 15 -73 -2 -69 -26 6 -44 -7 -32 -22 8
-10 8 -16 -2 -25 -8 -6 -18 -7 -23 -3 -4 4 -3 0 4 -9 9 -12 9 -18 -1 -29 -9
-10 -9 -11 1 -6 6 4 12 3 12 -3 0 -5 -6 -12 -12 -15 -7 -3 0 -2 16 1 27 6 29
4 24 -21 -4 -19 -1 -29 9 -33 20 -8 -3 -23 -35 -23 -19 0 -21 -2 -10 -14 7 -8
16 -12 19 -10 3 2 6 -3 6 -11 0 -8 -7 -15 -16 -15 -12 0 -12 -3 -3 -12 14 -14
16 -32 3 -24 -5 4 -7 -3 -4 -14 3 -11 10 -20 15 -20 5 0 6 5 2 12 -4 7 -3 8 4
4 7 -4 12 -17 12 -29 1 -19 3 -18 15 8 l14 30 -6 -30 c-3 -16 -12 -41 -21 -54
-9 -15 -11 -26 -5 -28 6 -2 19 -10 29 -18 15 -12 16 -16 6 -23 -8 -5 -13 -13
-12 -18 1 -4 -7 -12 -17 -16 -15 -7 -14 -8 5 -4 15 3 22 -1 22 -11 0 -8 5 -11
12 -7 8 5 9 2 5 -9 -3 -10 -2 -17 3 -17 5 0 7 -7 4 -15 -4 -11 1 -15 17 -16
13 0 19 -3 12 -5 -7 -3 -9 -12 -6 -20 10 -26 -16 -14 -42 20 -34 45 -65 54
-65 18 0 -37 41 -100 99 -153 l50 -46 88 54 c49 30 98 59 111 64 40 16 15 31
-39 24 -62 -9 -64 5 -5 40 60 35 73 51 47 60 -25 8 -28 19 -41 130 -16 150
-27 207 -55 290 -45 132 -100 227 -146 251 -26 13 -28 13 -40 -15z m15 -37 c3
-8 2 -12 -4 -9 -6 3 -10 10 -10 16 0 14 7 11 14 -7z m-49 -144 c3 -6 -1 -7 -9
-4 -18 7 -21 14 -7 14 6 0 13 -4 16 -10z m1 -35 c-20 -15 -36 -19 -36 -10 0 5
38 23 50 24 3 0 -4 -6 -14 -14z m-16 -35 c0 -5 -2 -10 -4 -10 -3 0 -8 5 -11
10 -3 6 -1 10 4 10 6 0 11 -4 11 -10z m15 -169 c3 -5 2 -12 -3 -15 -5 -3 -9 1
-9 9 0 17 3 19 12 6z m26 -134 c-10 -9 -11 -8 -5 6 3 10 9 15 12 12 3 -3 0
-11 -7 -18z m41 14 c7 11 8 9 6 -6 -2 -11 -11 -21 -20 -23 -13 -2 -15 2 -10
20 3 13 7 17 10 9 4 -11 6 -11 14 0z m29 -200 c-6 -10 -7 -21 -4 -25 3 -3 1
-6 -5 -6 -7 0 -12 3 -12 6 0 9 20 44 26 44 2 0 0 -8 -5 -19z"/>
<path d="M1455 4315 c4 -11 8 -26 8 -33 0 -8 4 -9 10 -3 6 6 3 18 -8 33 -14
19 -16 19 -10 3z"/>
<path d="M3020 4260 c0 -5 9 -10 20 -10 11 0 20 5 20 10 0 6 -9 10 -20 10 -11
0 -20 -4 -20 -10z"/>
<path d="M1433 4133 c-19 -7 -16 -19 5 -20 10 -1 19 5 19 13 0 15 -4 16 -24 7z"/>
<path d="M1435 4090 c4 -6 11 -8 16 -5 14 9 11 15 -7 15 -8 0 -12 -5 -9 -10z"/>
<path d="M2176 4081 c-3 -4 -2 -28 2 -52 6 -35 12 -45 30 -47 19 -3 22 1 22
30 0 49 -37 97 -54 69z"/>
<path d="M3060 3944 c0 -8 5 -12 10 -9 6 3 10 10 10 16 0 5 -4 9 -10 9 -5 0
-10 -7 -10 -16z"/>
<path d="M1445 3930 c3 -5 8 -10 11 -10 2 0 4 5 4 10 0 6 -5 10 -11 10 -5 0
-7 -4 -4 -10z"/>
<path d="M1425 3899 c-11 -16 -1 -19 13 -3 7 8 8 14 3 14 -5 0 -13 -5 -16 -11z"/>
<path d="M3060 3901 c0 -6 4 -13 10 -16 6 -3 7 1 4 9 -7 18 -14 21 -14 7z"/>
<path d="M2945 3870 c-3 -5 -1 -10 4 -10 6 0 11 5 11 10 0 6 -2 10 -4 10 -3 0
-8 -4 -11 -10z"/>
<path d="M3004 3864 c3 -3 1 -16 -4 -29 -10 -27 9 -61 31 -52 10 4 9 6 -4 6
-15 1 -18 8 -16 35 2 19 0 37 -4 40 -4 4 -5 3 -3 0z"/>
<path d="M3037 3859 c7 -7 15 -10 18 -7 3 3 -2 9 -12 12 -14 6 -15 5 -6 -5z"/>
<path d="M2261 3717 c-6 -8 -30 -20 -53 -27 -24 -8 -49 -18 -55 -23 -9 -6 -15
-4 -19 7 -3 9 -10 16 -15 16 -12 0 -12 -37 0 -45 5 -3 13 -20 16 -38 4 -17 13
-43 19 -57 7 -14 19 -38 27 -55 8 -16 19 -30 24 -30 32 0 104 242 77 259 -5 3
-15 0 -21 -7z"/>
<path d="M2010 3689 c0 -21 44 -89 57 -89 20 0 16 38 -8 71 -20 29 -49 39 -49
18z"/>
<path d="M2329 3659 c-20 -41 -15 -70 10 -54 16 9 51 81 44 89 -15 15 -34 3
-54 -35z"/>
<path d="M2943 3463 c0 -8 6 -9 19 -2 10 5 18 11 18 12 0 2 -8 3 -18 3 -10 0
-19 -6 -19 -13z"/>
<path d="M1933 3433 c-20 -7 -15 -27 10 -51 46 -44 87 -11 42 34 -24 24 -30
26 -52 17z"/>
<path d="M2410 3410 c-24 -24 -25 -33 -5 -50 12 -10 18 -10 33 1 25 20 41 42
42 57 0 19 -48 14 -70 -8z"/>
<path d="M2485 3331 c-48 -21 -72 -54 -81 -109 -25 -157 169 -237 245 -102 32
58 27 136 -13 175 -46 47 -100 59 -151 36z m73 -53 c18 -18 15 -42 -7 -62 -40
-36 -91 15 -55 55 20 22 44 25 62 7z"/>
<path d="M1803 3320 c-38 -23 -73 -86 -73 -131 0 -41 35 -101 70 -122 62 -37
142 -13 179 53 73 130 -54 275 -176 200z m101 -49 c36 -40 -23 -86 -66 -51
-21 17 -21 18 -5 44 21 31 47 33 71 7z"/>
<path d="M2049 3077 c-103 -40 -238 -128 -271 -176 -34 -49 -58 -118 -58 -167
0 -31 -2 -33 -54 -45 -61 -13 -68 -11 -154 59 -48 38 -44 52 16 52 45 0 41 21
-10 55 -24 15 -66 45 -94 66 -52 40 -94 51 -94 24 0 -12 31 -39 115 -98 18
-13 18 -14 -10 -28 -16 -8 -30 -19 -32 -24 -5 -16 54 -76 112 -115 28 -18 51
-34 53 -36 2 -1 -4 -13 -12 -27 -9 -13 -18 -42 -20 -64 -3 -29 -14 -49 -40
-75 -57 -57 -40 -93 23 -49 l28 20 34 -42 c20 -23 103 -177 186 -342 83 -165
180 -358 217 -428 36 -70 66 -130 66 -133 0 -3 -7 2 -16 10 -12 13 -18 13 -29
3 -7 -6 -9 -13 -4 -15 19 -7 8 -20 -13 -16 -13 2 -16 1 -8 -2 8 -4 18 -12 22
-18 5 -7 8 -6 9 4 0 10 3 9 10 -5 9 -19 9 -19 5 2 -3 16 1 21 15 20 20 -1 36
-38 25 -55 -3 -6 -6 -177 -7 -380 0 -268 -3 -372 -11 -374 -8 -3 -6 -12 5 -28
10 -15 17 -44 17 -71 0 -74 -5 -79 -66 -79 l-54 0 0 64 c0 77 -6 96 -31 96
-16 0 -19 -10 -21 -77 l-3 -78 -52 -3 -53 -3 0 91 c0 69 -3 91 -12 88 -23 -8
-38 -52 -38 -115 l0 -63 -39 0 c-36 0 -39 2 -44 34 -3 19 -1 51 4 72 12 54 11
64 -5 64 -28 0 -46 -42 -46 -107 l0 -63 -35 0 c-32 0 -35 3 -45 41 -14 49 -4
84 40 139 17 21 26 40 21 42 -5 2 -10 214 -13 500 l-3 497 34 -34 c32 -33 64
-45 75 -27 3 5 -17 35 -44 67 -90 106 -126 218 -116 353 6 85 -4 109 -25 55
-14 -36 -66 -280 -87 -407 l-16 -98 -50 -22 c-72 -32 -141 -103 -179 -184 -28
-60 -32 -78 -35 -178 -5 -133 17 -228 78 -341 l39 -72 -52 -15 c-72 -22 -125
-54 -161 -99 -27 -34 -31 -47 -31 -100 0 -48 5 -69 23 -94 l22 -32 -42 -5
c-24 -3 -59 -7 -78 -8 -23 -2 -35 -8 -35 -18 0 -13 166 -15 1425 -18 784 -1
1444 0 1468 3 27 4 42 11 42 21 0 11 -21 14 -114 14 -62 0 -141 3 -175 6 l-62
7 19 21 c50 56 52 129 8 197 l-26 38 48 7 c112 16 154 64 55 64 -54 0 -12 24
80 46 116 28 137 38 137 64 0 23 -10 24 -59 10 -67 -19 -47 7 37 52 55 28 132
95 132 114 0 20 -31 17 -60 -6 -41 -32 -45 -23 -8 22 47 57 141 205 158 246
10 25 10 36 1 45 -9 9 -21 1 -51 -33 -47 -54 -50 -44 -11 41 33 74 65 194 57
215 -10 26 -27 14 -49 -33 l-21 -48 -8 105 c-11 156 -51 300 -84 300 -7 0 -14
-14 -16 -32 -4 -29 -5 -30 -13 -13 -14 33 -85 125 -126 165 -43 42 -95 68
-109 54 -5 -5 2 -58 17 -124 64 -285 8 -598 -138 -764 -38 -44 -49 -45 -49 -6
0 49 -21 133 -47 185 -51 101 -120 163 -215 194 -32 11 -37 17 -43 54 -10 59
-53 231 -70 275 -7 20 -26 77 -41 125 -17 55 -34 92 -46 98 -17 9 -18 4 -12
-103 9 -162 -21 -268 -101 -357 -19 -21 -35 -43 -35 -49 0 -34 68 -9 113 42
l28 31 -5 -109 c-3 -60 -6 -282 -6 -494 l0 -384 -32 6 c-18 4 -64 9 -103 12
-84 6 -69 -7 30 -26 116 -22 185 -87 185 -174 0 -51 -9 -66 -40 -66 -27 0 -28
1 -32 71 -3 60 -8 74 -27 90 -33 27 -45 24 -37 -8 4 -16 10 -56 13 -90 l5 -63
-41 0 -41 0 0 54 c0 70 -16 116 -41 116 -17 0 -19 -8 -19 -85 l0 -85 -55 0
-54 0 -3 78 c-3 69 -5 77 -23 77 -18 0 -20 -8 -23 -77 l-3 -78 -54 0 c-43 0
-56 4 -65 19 -14 28 -12 102 5 131 12 20 14 87 15 346 0 177 -5 367 -10 423
-9 85 -8 105 4 130 9 17 18 71 21 127 9 142 11 150 37 186 12 18 23 35 24 38
4 23 27 62 40 67 9 3 11 8 6 12 -6 4 0 17 16 31 14 14 22 18 17 10 -8 -13 -7
-13 8 -1 18 14 23 26 8 16 -5 -3 -12 -1 -15 4 -10 16 14 24 29 11 10 -8 15 -9
15 -2 0 6 8 9 18 6 16 -5 16 -5 0 6 -10 6 -18 16 -18 22 0 6 3 8 7 5 3 -4 12
1 19 11 12 15 15 15 23 2 8 -11 9 -8 7 13 -1 15 -6 30 -11 35 -4 4 -5 2 -2 -4
4 -7 0 -17 -8 -24 -8 -7 -15 -9 -15 -5 0 4 -7 2 -16 -6 -8 -7 -13 -21 -11 -31
6 -21 -6 -24 -21 -5 -7 8 1 33 28 85 21 40 41 68 45 62 3 -5 11 -10 16 -10 6
0 3 8 -7 17 -11 11 -13 18 -5 21 6 2 8 9 4 15 -3 7 -2 8 3 4 5 -5 16 13 25 40
l17 48 3 -37 c1 -21 2 -44 3 -50 1 -17 18 -28 29 -21 5 3 3 9 -4 14 -10 6 -10
9 -2 9 6 0 15 -5 18 -10 4 -6 11 -7 17 -4 7 4 8 2 4 -4 -4 -7 -1 -12 8 -12 8
0 18 5 22 12 4 7 3 8 -4 4 -7 -4 -12 -1 -12 8 0 10 -6 13 -17 10 -13 -4 -14
-3 -5 3 15 11 5 46 -10 37 -6 -4 -5 3 1 15 13 24 26 29 17 6 -3 -8 0 -15 5
-15 6 0 9 9 6 20 -3 11 0 23 5 27 8 4 9 -7 5 -35 -4 -24 -3 -43 3 -47 5 -3 10
-1 10 5 0 19 23 -11 54 -70 35 -66 74 -120 87 -120 18 0 9 41 -23 103 -18 34
-34 65 -36 70 -2 4 10 7 27 7 17 0 31 4 31 9 0 10 -81 95 -118 124 -20 15 -25
16 -43 3 -15 -10 -17 -15 -7 -19 11 -4 11 -6 0 -6 -7 -1 -11 -5 -8 -10 7 -10
-19 -34 -40 -37 -17 -3 -19 22 -3 32 6 3 15 1 19 -6 9 -15 18 -1 14 23 -1 10
4 21 12 24 8 3 12 9 9 13 -11 17 14 19 50 4 62 -25 67 -2 12 48 -39 35 -47 47
-47 78 0 19 -8 46 -17 60 -11 16 -13 25 -5 28 6 2 38 21 70 42 90 58 114 103
70 132 -21 14 -20 15 23 40 57 34 102 75 94 88 -13 21 -47 7 -151 -62 -114
-75 -115 -77 -41 -92 15 -4 27 -11 27 -16 0 -5 -31 -30 -69 -56 l-69 -46 -62
16 c-34 9 -63 16 -65 16 -1 0 -3 23 -4 52 -1 69 -31 127 -95 186 -58 52 -167
114 -243 137 -74 23 -216 19 -284 -8z m167 -145 c21 -13 -3 -52 -32 -52 -14 0
-48 -11 -76 -25 -60 -30 -58 -30 -58 -5 0 50 123 110 166 82z m-127 -168 c33
-7 43 -24 14 -24 -20 1 -74 29 -57 30 6 0 26 -3 43 -6z m251 -3 c-28 -16 -60
-22 -60 -12 0 9 24 17 60 19 13 1 13 0 0 -7z m-53 -87 c-3 -3 -12 -4 -19 -1
-8 3 -5 6 6 6 11 1 17 -2 13 -5z m-469 -61 c50 -49 66 -57 131 -73 70 -17 211
-7 224 15 11 20 36 19 60 -2 29 -27 245 -26 305 1 23 11 41 24 39 30 -2 5 11
23 29 38 l33 29 67 -16 c84 -19 104 -36 104 -87 0 -46 -23 -106 -44 -114 -9
-3 -37 1 -63 10 -152 53 -467 84 -663 65 -112 -10 -277 -41 -348 -65 -58 -19
-59 -19 -82 19 -23 36 -27 119 -7 135 14 11 133 50 159 51 9 1 35 -16 56 -36z
m662 -177 c187 -35 230 -47 230 -68 0 -7 -61 -135 -135 -283 l-135 -270 0
-122 c0 -68 -2 -123 -4 -123 -2 0 -11 -3 -20 -6 -13 -5 -16 3 -16 52 0 33 -5
66 -10 74 -8 13 -12 13 -27 -3 -15 -15 -18 -36 -18 -135 0 -114 -1 -117 -23
-120 -21 -3 -22 -1 -16 37 10 61 -19 55 -53 -11 -26 -51 -27 -59 -28 -201 0
-119 -3 -149 -15 -157 -10 -6 -20 -4 -30 5 -14 13 -16 36 -12 154 l5 139 -79
149 c-160 304 -414 809 -414 823 0 21 202 68 365 84 75 7 360 -5 435 -18z
m-1096 -933 c-13 -123 32 -292 106 -403 29 -44 30 -49 30 -164 0 -109 -1 -118
-17 -111 -10 4 -55 9 -101 12 -81 6 -83 7 -110 42 -81 104 -113 199 -114 337
0 60 5 118 13 140 22 65 78 141 126 173 67 45 74 42 67 -26z m1811 24 c74 -53
118 -127 141 -239 17 -81 14 -126 -18 -233 -22 -74 -40 -109 -52 -98 -4 4 -4
0 0 -10 4 -12 1 -17 -9 -17 -9 0 -19 -4 -22 -10 -4 -6 1 -7 10 -3 16 5 16 3 2
-24 -23 -43 -36 -51 -92 -52 -54 -2 -86 -5 -134 -16 l-31 -7 0 99 c0 63 5 107
13 123 8 14 23 41 34 60 58 104 87 219 88 352 0 120 2 122 70 75z m-865 -163
c0 -9 -7 -14 -17 -12 -25 5 -28 28 -4 28 12 0 21 -6 21 -16z m-847 -601 c21
-3 41 -12 44 -19 2 -7 -9 -33 -26 -57 -25 -37 -31 -56 -33 -112 l-3 -68 -42
-3 c-42 -2 -43 -2 -40 29 2 27 -3 34 -35 49 -49 24 -64 52 -44 83 27 41 -12
41 -46 0 -26 -30 -22 -70 11 -108 29 -33 29 -33 6 -32 -13 0 -32 8 -42 18 -10
10 -34 28 -53 40 -23 15 -37 33 -40 52 -7 38 -25 42 -45 11 -22 -33 -14 -65
26 -111 21 -24 26 -35 16 -35 -19 0 -84 64 -92 91 -10 30 13 86 48 115 63 53
102 64 232 64 66 0 137 -3 158 -7z m1897 -18 c78 -40 124 -138 86 -187 -20
-27 -26 -22 -16 13 14 47 1 87 -37 116 -18 14 -36 24 -38 21 -3 -3 2 -22 11
-43 l16 -39 -61 -58 c-33 -32 -63 -53 -66 -48 -4 6 -12 7 -18 4 -7 -4 -2 4 9
17 53 59 56 98 14 140 -32 32 -57 32 -40 -1 17 -32 11 -59 -17 -77 -47 -28
-73 -56 -73 -75 0 -10 -1 -18 -3 -18 -1 0 -17 4 -35 9 -25 8 -32 7 -32 -5 0
-8 -3 -14 -8 -14 -4 0 -8 32 -10 71 -2 70 -15 102 -60 148 -36 37 5 48 191 50
128 1 141 -1 187 -24z m30 -235 c0 -5 -5 -10 -11 -10 -5 0 -7 5 -4 10 3 6 8
10 11 10 2 0 4 -4 4 -10z"/>
<path d="M1907 2336 c-4 -10 6 -16 35 -20 79 -13 128 -98 94 -165 -35 -67 -99
-82 -166 -37 l-41 27 15 -29 c46 -90 176 -80 227 18 38 71 15 158 -53 200 -38
23 -103 27 -111 6z"/>
<path d="M2170 2336 c0 -20 27 -39 45 -32 8 3 15 14 15 24 0 13 -9 18 -30 20
-20 2 -30 -2 -30 -12z"/>
<path d="M2414 2339 c-7 -11 22 -18 37 -8 8 5 19 9 24 9 6 -1 2 -5 -8 -11 -16
-10 -12 -15 36 -45 67 -42 77 -60 33 -59 -39 2 -59 12 -50 28 4 7 3 9 -1 4 -5
-4 -18 -1 -29 7 -12 7 -34 14 -49 14 l-28 0 30 -19 c17 -10 31 -23 31 -29 0
-5 8 -7 18 -3 9 3 14 2 9 -2 -4 -5 12 -20 35 -34 71 -42 20 -36 -66 9 -97 49
-108 51 -93 10 6 -16 15 -30 20 -30 4 0 5 5 1 12 -4 7 -3 8 5 4 6 -4 9 -11 7
-15 -3 -4 26 -18 65 -30 38 -13 72 -27 74 -31 3 -5 -4 -15 -16 -24 -31 -22
-129 -3 -129 25 0 6 13 8 33 5 26 -5 23 -2 -19 18 -29 13 -57 32 -64 42 -9 16
-11 13 -6 -18 2 -21 13 -49 23 -63 21 -29 89 -65 123 -65 62 0 140 102 140
182 0 30 -7 45 -36 73 -25 26 -41 34 -55 30 -13 -5 -19 -2 -17 7 2 9 -9 13
-35 13 -21 0 -40 -2 -43 -6z m66 -179 c8 -5 11 -10 5 -10 -5 0 -17 5 -25 10
-8 5 -10 10 -5 10 6 0 17 -5 25 -10z"/>
<path d="M1875 2269 c-8 -25 6 -42 31 -37 23 4 31 37 12 49 -22 14 -36 10 -43
-12z"/>
<path d="M1836 2252 c-3 -5 1 -9 9 -9 8 0 12 4 9 9 -3 4 -7 8 -9 8 -2 0 -6 -4
-9 -8z"/>
<path d="M1976 2242 c-10 -9 -7 -50 4 -57 15 -9 40 13 40 35 0 17 -33 34 -44
22z"/>
<path d="M1846 2207 c2 -11 -1 -26 -7 -33 -6 -8 -7 -14 0 -18 13 -8 23 9 26
44 1 16 -3 27 -10 27 -8 0 -12 -9 -9 -20z"/>
<path d="M1898 2195 c-12 -13 5 -45 24 -45 14 0 19 6 16 22 -3 22 -27 35 -40
23z"/>
<path d="M2160 2115 c0 -14 2 -25 4 -25 2 0 11 -3 19 -6 17 -6 29 19 21 41 -4
8 -15 15 -25 15 -14 0 -19 -7 -19 -25z"/>
<path d="M2295 2010 c-3 -5 -3 -14 0 -20 8 -14 35 -13 35 1 0 6 -7 8 -16 5
-12 -4 -15 -2 -10 9 6 17 0 20 -9 5z"/>
<path d="M1932 1974 c2 -11 11 -20 22 -22 13 -3 17 1 14 14 -2 11 -11 20 -22
22 -13 3 -17 -1 -14 -14z"/>
<path d="M2122 1946 c8 -7 24 -17 36 -20 40 -13 81 -56 88 -92 9 -47 -1 -77
-37 -113 -44 -45 -111 -40 -147 11 -22 31 -34 20 -15 -13 35 -61 107 -85 162
-55 41 23 81 94 81 143 0 85 -62 153 -139 153 -36 0 -40 -2 -29 -14z"/>
<path d="M2134 1895 c2 -15 31 -45 44 -45 6 0 13 7 16 16 3 8 2 13 -3 10 -5
-3 -11 0 -14 8 -7 17 -45 28 -43 11z"/>
<path d="M2066 1881 c-10 -16 6 -42 23 -39 9 2 17 13 19 26 3 16 -2 22 -17 22
-11 0 -22 -4 -25 -9z"/>
<path d="M2071 1816 c-16 -19 -7 -46 14 -46 22 0 30 29 13 46 -13 13 -16 13
-27 0z"/>
<path d="M2152 1798 c4 -30 48 -39 48 -10 0 18 -18 32 -42 32 -5 0 -8 -10 -6
-22z"/>
<path d="M2146 1572 c-10 -17 2 -32 24 -32 21 0 36 17 25 28 -4 4 -10 1 -12
-6 -4 -10 -8 -9 -17 4 -9 12 -15 14 -20 6z"/>
<path d="M3244 995 c-4 -8 -10 -13 -14 -10 -5 3 -6 -4 -3 -15 3 -11 10 -23 16
-27 6 -3 7 -1 3 6 -10 16 3 53 16 45 7 -4 8 -2 4 4 -10 16 -15 15 -22 -3z"/>
<path d="M3196 971 c-4 -5 -2 -12 3 -15 5 -4 12 -2 15 3 4 5 2 12 -3 15 -5 4
-12 2 -15 -3z"/>
<path d="M3128 953 c7 -3 16 -2 19 1 4 3 -2 6 -13 5 -11 0 -14 -3 -6 -6z"/>
<path d="M3125 930 c-3 -6 1 -7 9 -4 18 7 21 14 7 14 -6 0 -13 -4 -16 -10z"/>
<path d="M3073 883 c-15 -5 -17 -29 -4 -38 5 -3 13 0 17 6 4 8 3 9 -4 5 -7 -4
-12 -3 -12 3 0 5 6 11 13 14 6 2 10 7 7 9 -3 3 -11 3 -17 1z"/>
<path d="M3176 865 c4 -8 8 -15 10 -15 2 0 4 7 4 15 0 8 -4 15 -10 15 -5 0 -7
-7 -4 -15z"/>
<path d="M3101 554 c0 -11 3 -14 6 -6 3 7 2 16 -1 19 -3 4 -6 -2 -5 -13z"/>
<path d="M1334 2761 c-17 -4 -36 -11 -42 -15 -14 -9 -16 -36 -3 -36 20 0 101
40 101 50 0 11 -11 11 -56 1z"/>
<path d="M3043 2754 c15 -16 107 -42 113 -32 4 5 2 14 -4 20 -13 13 -121 24
-109 12z"/>
<path d="M1375 2671 c-42 -19 -82 -57 -72 -67 7 -7 127 67 127 79 0 11 -11 8
-55 -12z"/>
<path d="M2990 2682 c0 -5 15 -17 33 -25 17 -9 48 -27 66 -41 33 -25 62 -22
47 3 -19 30 -146 85 -146 63z"/>
<path d="M1510 2384 c-28 -18 -90 -95 -90 -112 0 -23 29 -11 51 21 12 17 38
49 58 70 37 39 27 50 -19 21z"/>
<path d="M1486 2267 c-50 -66 -86 -175 -54 -165 11 4 106 172 107 191 2 19
-31 4 -53 -26z"/>
<path d="M2752 2262 c-8 -17 -9 -28 -2 -30 5 -2 10 -10 10 -18 0 -9 5 -12 10
-9 6 3 10 0 11 -7 0 -7 4 -4 9 7 11 26 12 35 3 34 -27 -4 -35 1 -23 16 8 10
10 19 4 25 -5 5 -14 -2 -22 -18z"/>
<path d="M2817 2237 c-3 -8 1 -14 8 -14 7 0 11 6 8 14 -3 7 -6 13 -8 13 -2 0
-5 -6 -8 -13z"/>
<path d="M2850 2216 c0 -2 7 -7 16 -10 8 -3 12 -2 9 4 -6 10 -25 14 -25 6z"/>
<path d="M2726 2180 c-19 -6 -19 -7 2 -12 12 -4 24 -2 27 2 8 13 -8 18 -29 10z"/>
<path d="M2620 1979 c0 -5 5 -7 10 -4 6 3 10 8 10 11 0 2 -4 4 -10 4 -5 0 -10
-5 -10 -11z"/>
<path d="M794 469 c-9 -15 12 -33 30 -26 9 4 16 13 16 22 0 17 -35 21 -46 4z"/>
</g>
</svg>
